<svg width="32" height="32" viewBox="0 0 32 32" fill="none" xmlns="http://www.w3.org/2000/svg">
<ellipse cx="17.5" cy="23" rx="12.5" ry="9" fill="#074A30"/>
<circle cx="5.5" cy="7.5" r="5.5" fill="#074A30"/>
<circle cx="22.5" cy="5.5" r="5.5" fill="#074A30"/>
<circle cx="5.5" cy="8.5" r="3.5" fill="#FFF9F0"/>
<circle cx="22.5" cy="6.5" r="3.5" fill="#FFF9F0"/>
<circle cx="16" cy="19" r="13" fill="#074A30"/>
<path d="M20.5195 24L18.3545 21H22.6846L20.5195 24Z" fill="#FFF9F0"/>
<path d="M20.5195 24C20.5195 24 20.7236 25.796 20.0195 26.5C19.3155 27.204 18.5075 27.1235 17.5195 27C16.9068 26.9234 16.5556 26.8064 16.0195 26.5" stroke="#FFF9F0" stroke-linecap="round"/>
<path d="M20.5195 24C20.5195 24 20.7236 25.796 20.0195 26.5C19.3155 27.204 18.5075 27.1235 17.5195 27C16.9068 26.9234 16.5556 26.8064 16.0195 26.5" stroke="#FFF9F0" stroke-linecap="round"/>
<path d="M20.5547 24C20.5547 24 20.2723 25.8459 21.0195 26.5C21.494 26.9153 21.9311 27.0935 22.5547 27C22.9865 26.9353 23.6685 26.7841 24 26.5" stroke="#FFF9F0" stroke-linecap="round"/>
<path d="M15.0195 18C15.0195 19.1046 14.348 20 13.5195 20C12.6911 20 12.0195 19.1046 12.0195 18C12.0195 16.8954 12.6911 16 13.5195 16C14.348 16 15.0195 16.8954 15.0195 18Z" fill="#FFF9F0"/>
<path d="M26.0196 17C26.0196 18.1046 25.3481 19 24.5196 19C23.6912 19 23.0196 18.1046 23.0196 17C23.0196 15.8954 23.6912 15 24.5196 15C25.3481 15 26.0196 15.8954 26.0196 17Z" fill="#FFF9F0"/>
<path d="M12.0633 13.6878C12.0633 13.6878 12.6217 13.1125 13.4879 13.002C14.1005 12.9239 14.5023 13.0032 15.0392 13.3082" stroke="#FFF9F0" stroke-linecap="round"/>
<path d="M23.0828 12.8756C23.0828 12.8756 23.6413 12.3003 24.5075 12.1898C25.12 12.1117 25.5218 12.191 26.0587 12.496" stroke="#FFF9F0" stroke-linecap="round"/>
</svg>
