<svg width="304" height="48" viewBox="0 0 304 48" fill="none" xmlns="http://www.w3.org/2000/svg">
<ellipse cx="19.8336" cy="32.0665" rx="14.1666" ry="10.1999" fill="#074A30"/>
<circle cx="6.2333" cy="14.5" r="6.2333" fill="#074A30"/>
<circle cx="25.4999" cy="12.2333" r="6.2333" fill="#074A30"/>
<circle cx="6.23325" cy="15.6333" r="3.96665" fill="#FFF9F0"/>
<circle cx="25.4998" cy="13.3666" r="3.96665" fill="#FFF9F0"/>
<circle cx="18.1337" cy="27.5332" r="14.7333" fill="#074A30"/>
<path d="M21.8018 31.4999L19.5014 28.3124H24.1021L21.8018 31.4999Z" fill="#FFF9F0"/>
<path d="M21.8017 31.4999C21.8017 31.4999 22.0185 33.4081 21.2705 34.1561C20.5225 34.9041 19.6639 34.8186 18.6142 34.6874C17.9633 34.606 17.5901 34.4816 17.0205 34.1561" stroke="#FFF9F0" stroke-linecap="round"/>
<path d="M21.8017 31.4999C21.8017 31.4999 22.0185 33.4081 21.2705 34.1561C20.5225 34.9041 19.6639 34.8186 18.6142 34.6874C17.9633 34.606 17.5901 34.4816 17.0205 34.1561" stroke="#FFF9F0" stroke-linecap="round"/>
<path d="M21.8394 31.4999C21.8394 31.4999 21.5394 33.4612 22.3333 34.1561C22.8373 34.5974 23.3018 34.7867 23.9644 34.6874C24.4231 34.6186 25.1478 34.458 25.5 34.1561" stroke="#FFF9F0" stroke-linecap="round"/>
<path d="M15.958 25.1249C15.958 26.2985 15.2444 27.2499 14.3642 27.2499C13.4841 27.2499 12.7705 26.2985 12.7705 25.1249C12.7705 23.9513 13.4841 22.9999 14.3642 22.9999C15.2444 22.9999 15.958 23.9513 15.958 25.1249Z" fill="#FFF9F0"/>
<path d="M27.6456 24.0624C27.6456 25.236 26.9321 26.1874 26.0519 26.1874C25.1717 26.1874 24.4581 25.236 24.4581 24.0624C24.4581 22.8888 25.1717 21.9374 26.0519 21.9374C26.9321 21.9374 27.6456 22.8888 27.6456 24.0624Z" fill="#FFF9F0"/>
<path d="M12.8172 20.5432C12.8172 20.5432 13.4106 19.932 14.3309 19.8146C14.9817 19.7316 15.4086 19.8158 15.9791 20.1399" stroke="#FFF9F0" stroke-linecap="round"/>
<path d="M24.5252 19.6802C24.5252 19.6802 25.1186 19.069 26.0389 18.9516C26.6897 18.8686 27.1167 18.9529 27.6871 19.2769" stroke="#FFF9F0" stroke-linecap="round"/>
<path d="M47.168 40V5.92H54.368V20.272H53.408C53.664 18.768 54.16 17.536 54.896 16.576C55.664 15.616 56.608 14.896 57.728 14.416C58.88 13.936 60.128 13.696 61.472 13.696C63.392 13.696 64.992 14.112 66.272 14.944C67.552 15.776 68.512 16.928 69.152 18.4C69.824 19.872 70.16 21.552 70.16 23.44V40H62.96V25.168C62.96 23.248 62.656 21.808 62.048 20.848C61.472 19.888 60.48 19.408 59.072 19.408C57.6 19.408 56.448 19.904 55.616 20.896C54.784 21.888 54.368 23.376 54.368 25.36V40H47.168ZM87.5664 40.576C84.9424 40.576 82.6544 40.032 80.7024 38.944C78.7504 37.824 77.2304 36.256 76.1424 34.24C75.0544 32.224 74.5104 29.856 74.5104 27.136C74.5104 24.416 75.0544 22.064 76.1424 20.08C77.2304 18.064 78.7504 16.496 80.7024 15.376C82.6544 14.256 84.9424 13.696 87.5664 13.696C90.1904 13.696 92.4784 14.256 94.4304 15.376C96.3824 16.496 97.9024 18.064 98.9904 20.08C100.078 22.064 100.622 24.416 100.622 27.136C100.622 29.856 100.078 32.224 98.9904 34.24C97.9024 36.256 96.3824 37.824 94.4304 38.944C92.4784 40.032 90.1904 40.576 87.5664 40.576ZM87.5664 35.056C89.3584 35.056 90.7504 34.368 91.7424 32.992C92.7344 31.584 93.2304 29.632 93.2304 27.136C93.2304 24.64 92.7344 22.704 91.7424 21.328C90.7504 19.92 89.3584 19.216 87.5664 19.216C85.7744 19.216 84.3824 19.92 83.3904 21.328C82.3984 22.704 81.9024 24.64 81.9024 27.136C81.9024 29.632 82.3984 31.584 83.3904 32.992C84.3824 34.368 85.7744 35.056 87.5664 35.056ZM105.105 40V14.272H111.586L111.874 21.808L110.962 21.568C111.218 19.648 111.73 18.112 112.498 16.96C113.298 15.808 114.29 14.976 115.474 14.464C116.658 13.952 117.954 13.696 119.362 13.696C121.218 13.696 122.786 14.096 124.066 14.896C125.378 15.696 126.37 16.832 127.042 18.304C127.746 19.744 128.098 21.456 128.098 23.44V40H120.898V25.84C120.898 24.464 120.786 23.296 120.562 22.336C120.338 21.376 119.938 20.656 119.362 20.176C118.786 19.664 117.986 19.408 116.962 19.408C115.458 19.408 114.306 19.968 113.506 21.088C112.706 22.176 112.306 23.76 112.306 25.84V40H105.105ZM145.408 40.576C142.784 40.576 140.496 40.032 138.544 38.944C136.624 37.824 135.12 36.256 134.032 34.24C132.976 32.224 132.448 29.856 132.448 27.136C132.448 24.416 132.976 22.064 134.032 20.08C135.12 18.064 136.624 16.496 138.544 15.376C140.464 14.256 142.736 13.696 145.36 13.696C147.92 13.696 150.144 14.256 152.032 15.376C153.92 16.496 155.376 18.096 156.4 20.176C157.456 22.256 157.984 24.736 157.984 27.616V29.056H139.888C139.984 31.104 140.528 32.624 141.52 33.616C142.544 34.608 143.888 35.104 145.552 35.104C146.768 35.104 147.776 34.848 148.576 34.336C149.408 33.824 150 33.04 150.352 31.984L157.6 32.416C156.928 34.976 155.504 36.976 153.328 38.416C151.152 39.856 148.512 40.576 145.408 40.576ZM139.888 24.64H150.592C150.496 22.752 149.968 21.344 149.008 20.416C148.08 19.488 146.864 19.024 145.36 19.024C143.856 19.024 142.608 19.52 141.616 20.512C140.656 21.472 140.08 22.848 139.888 24.64ZM163.608 47.2V41.824H167.016C167.848 41.824 168.456 41.696 168.84 41.44C169.256 41.216 169.576 40.8 169.8 40.192L170.328 38.704H168.36L159.336 14.272H166.68L172.584 31.984L178.104 14.272H185.448L175.56 42.448C174.984 44.144 174.152 45.36 173.064 46.096C171.976 46.832 170.456 47.2 168.504 47.2H163.608ZM215.327 40.576C213.535 40.576 211.967 40.192 210.623 39.424C209.311 38.656 208.287 37.584 207.551 36.208L207.407 40H200.543V5.92H207.743V17.92C208.415 16.736 209.407 15.744 210.719 14.944C212.031 14.112 213.567 13.696 215.327 13.696C217.503 13.696 219.391 14.256 220.991 15.376C222.591 16.464 223.823 18.016 224.687 20.032C225.583 22.048 226.031 24.416 226.031 27.136C226.031 29.856 225.583 32.224 224.687 34.24C223.823 36.256 222.591 37.824 220.991 38.944C219.391 40.032 217.503 40.576 215.327 40.576ZM213.311 35.056C214.911 35.056 216.191 34.368 217.151 32.992C218.143 31.584 218.639 29.632 218.639 27.136C218.639 24.64 218.159 22.704 217.199 21.328C216.239 19.92 214.959 19.216 213.359 19.216C212.175 19.216 211.151 19.536 210.287 20.176C209.455 20.784 208.815 21.68 208.367 22.864C207.951 24.048 207.743 25.472 207.743 27.136C207.743 28.768 207.951 30.176 208.367 31.36C208.815 32.544 209.455 33.456 210.287 34.096C211.151 34.736 212.159 35.056 213.311 35.056ZM242.064 40.576C239.44 40.576 237.152 40.032 235.2 38.944C233.28 37.824 231.776 36.256 230.688 34.24C229.632 32.224 229.104 29.856 229.104 27.136C229.104 24.416 229.632 22.064 230.688 20.08C231.776 18.064 233.28 16.496 235.2 15.376C237.12 14.256 239.392 13.696 242.016 13.696C244.576 13.696 246.8 14.256 248.688 15.376C250.576 16.496 252.032 18.096 253.056 20.176C254.112 22.256 254.64 24.736 254.64 27.616V29.056H236.544C236.64 31.104 237.184 32.624 238.176 33.616C239.2 34.608 240.544 35.104 242.208 35.104C243.424 35.104 244.432 34.848 245.232 34.336C246.064 33.824 246.656 33.04 247.008 31.984L254.256 32.416C253.584 34.976 252.16 36.976 249.984 38.416C247.808 39.856 245.168 40.576 242.064 40.576ZM236.544 24.64H247.248C247.152 22.752 246.624 21.344 245.664 20.416C244.736 19.488 243.52 19.024 242.016 19.024C240.512 19.024 239.264 19.52 238.272 20.512C237.312 21.472 236.736 22.848 236.544 24.64ZM266.956 40.576C264.3 40.576 262.124 39.968 260.428 38.752C258.764 37.504 257.932 35.776 257.932 33.568C257.932 31.296 258.636 29.552 260.044 28.336C261.484 27.088 263.596 26.176 266.38 25.6L274.684 23.968C274.684 22.304 274.3 21.056 273.532 20.224C272.796 19.36 271.724 18.928 270.316 18.928C268.94 18.928 267.868 19.248 267.1 19.888C266.332 20.496 265.836 21.408 265.612 22.624L258.364 22.288C258.844 19.472 260.108 17.344 262.156 15.904C264.236 14.432 266.956 13.696 270.316 13.696C274.156 13.696 277.036 14.608 278.956 16.432C280.908 18.256 281.884 20.928 281.884 24.448V33.232C281.884 33.968 281.996 34.464 282.22 34.72C282.476 34.944 282.844 35.056 283.324 35.056H284.044V40C283.82 40.064 283.452 40.128 282.94 40.192C282.46 40.256 281.98 40.288 281.5 40.288C280.476 40.288 279.516 40.112 278.62 39.76C277.756 39.408 277.052 38.816 276.508 37.984C275.964 37.12 275.692 35.904 275.692 34.336L276.316 34.816C275.996 35.968 275.42 36.976 274.588 37.84C273.788 38.704 272.732 39.376 271.42 39.856C270.14 40.336 268.652 40.576 266.956 40.576ZM268.684 35.632C269.868 35.632 270.908 35.408 271.804 34.96C272.7 34.48 273.404 33.792 273.916 32.896C274.428 32 274.684 30.944 274.684 29.728V28.48L268.828 29.728C267.676 29.952 266.796 30.336 266.188 30.88C265.612 31.392 265.324 32.064 265.324 32.896C265.324 33.76 265.612 34.432 266.188 34.912C266.764 35.392 267.596 35.632 268.684 35.632ZM287.824 40V14.272H294.64L294.88 21.76L294.352 21.616C294.768 19.024 295.504 17.152 296.56 16C297.616 14.848 299.072 14.272 300.928 14.272H303.28V20.224H300.928C299.584 20.224 298.48 20.4 297.616 20.752C296.752 21.104 296.096 21.664 295.648 22.432C295.232 23.2 295.024 24.24 295.024 25.552V40H287.824Z" fill="#074A30"/>
</svg>
